<?xml version="1.0" encoding="utf-8"?>
<!-- Generator: Adobe Illustrator 15.0.0, SVG Export Plug-In . SVG Version: 6.00 Build 0)  -->
<!DOCTYPE svg PUBLIC "-//W3C//DTD SVG 1.1//EN" "http://www.w3.org/Graphics/SVG/1.1/DTD/svg11.dtd">
<svg version="1.1" id="Layer_1" xmlns="http://www.w3.org/2000/svg" xmlns:xlink="http://www.w3.org/1999/xlink" x="0px" y="0px"
	 width="360px" height="360px" viewBox="0 0 360 360" enable-background="new 0 0 360 360" xml:space="preserve">
<path d="M281.259,96.31c-1.674-2.005-3.796-3.621-6.355-4.848c-2.564-1.225-5.349-2.059-8.358-2.508
	c-3.012-0.444-5.743-0.668-8.192-0.668c-7.139,0-13.6,1.453-19.395,4.347c-5.801,2.899-10.816,6.468-15.047,10.701
	c-2.304-2.125-4.708-4.087-7.204-5.896c-2.4-6.141-6.464-18.575-6.93-33.429c-0.667-21.243-1.721-28.705,0.734-33.467
	c2.457-4.762,11.229-11.137,5.33-15.777c-5.898-4.64-25.885-1.163-29.481,6.093c-3.599,7.257,11.028,4.297,11.246,13.479
	c0.208,8.8,1.455,33.799-6.995,51.93c-4.273-0.648-8.982-0.991-14.184-0.991c-5.376,0-10.511,0.387-15.416,1.151
	c-5.894-19.041-1.435-43.479-0.088-52.138c1.413-9.076,15.528-4.234,12.907-11.898c-2.621-7.664-21.984-13.714-28.438-9.883
	c-6.454,3.832,1.413,11.295,3.227,16.337c1.816,5.042-0.201,12.303-3.63,33.277c-2.796,17.103-10.014,30.314-12.585,34.609
	c-2.481,1.557-4.811,3.249-6.971,5.096c-0.882,0.755-1.729,1.538-2.555,2.339c-3.814-3.457-8.198-6.432-13.162-8.913
	c-5.792-2.894-12.255-4.347-19.394-4.347c-2.45,0-5.181,0.225-8.19,0.668c-3.011,0.45-5.794,1.286-8.358,2.509
	c-2.562,1.229-4.684,2.842-6.358,4.848c-1.672,2.005-2.507,4.682-2.507,8.026c0,3.792,1.004,7.188,3.011,10.196
	c2.006,3.011,5.909,4.516,11.703,4.516c4.236,0,7.021-0.888,8.358-2.674c1.339-1.783,2.341-3.68,3.011-5.686
	c0.668-2.008,1.453-3.897,2.339-5.684c0.893-1.783,3.011-2.676,6.354-2.676c3.569,0,7.137,0.893,10.699,2.676
	c2.368,1.185,4.333,2.619,5.914,4.292c-1.941,2.791-3.645,5.771-5.076,8.968c-3.345,7.47-5.015,15.773-5.015,24.912
	c0,13.375,3.227,24.024,9.695,31.933c6.463,7.915,15.382,14.101,26.75,18.558c0.221,0,0.335,0.114,0.335,0.335
	c0,0.225-0.114,0.334-0.335,0.334c-4.68,0.227-9.419,0.836-14.211,1.842c-4.796,1-9.143,2.62-13.04,4.846
	c-3.903,2.232-7.023,5.133-9.364,8.693c-2.339,3.569-3.511,7.916-3.511,13.04c0,7.141,2.115,12.323,6.354,15.552
	c4.23,3.229,8.912,5.733,14.043,7.523c-3.569,1.779-7.022,4.063-10.367,6.855c-3.345,2.783-6.351,5.958-9.029,9.527
	c-2.674,3.566-4.794,7.635-6.352,12.206c-1.562,4.565-2.341,9.642-2.341,15.217c0,9.581,1.949,17.83,5.854,24.743
	c3.897,6.906,9.47,12.59,16.718,17.053c7.242,4.457,15.884,7.741,25.914,9.865c10.034,2.116,21.067,3.175,33.105,3.175
	c14.487,0,27.251-1.728,38.287-5.181c11.034-3.461,20.341-8.192,27.92-14.214c7.577-6.017,13.263-13.153,17.053-21.399
	c3.789-8.251,5.687-17.168,5.687-26.75c0-10.924-2.342-19.787-7.021-26.583c-4.68-6.804-11.427-12.094-20.23-15.882
	c-8.808-3.791-19.562-6.523-32.269-8.196c-12.706-1.67-27.085-3.059-43.136-4.179c-2.006,0-4.628-0.166-7.857-0.501
	c-3.234-0.335-6.468-0.888-9.699-1.671c-3.232-0.779-5.964-1.842-8.19-3.177c-2.232-1.339-3.345-3.012-3.345-5.018
	c0-2.674,1.391-4.733,4.181-6.187c2.785-1.445,6.187-2.507,10.198-3.175c4.013-0.671,8.135-1.114,12.373-1.339
	c4.231-0.218,7.691-0.334,10.364-0.334c9.364,0,18.169-1.339,26.418-4.013c8.244-2.675,15.549-6.573,21.901-11.703
	c6.354-5.126,11.369-11.423,15.048-18.891c3.678-7.467,5.516-16.105,5.516-25.916c-0.223-5.351-1.059-10.644-2.507-15.884
	c-1.451-5.236-3.736-10.2-6.854-14.88c1.782-2.896,4.455-5.234,8.026-7.023c3.562-1.781,7.13-2.674,10.699-2.674
	c3.345,0,5.461,0.894,6.354,2.674c0.888,1.789,1.673,3.678,2.34,5.686c0.67,2.006,1.672,3.903,3.011,5.684
	c1.337,1.787,4.12,2.676,8.358,2.676c5.794,0,9.697-1.505,11.704-4.516c2.006-3.008,3.01-6.404,3.01-10.196
	C283.766,100.992,282.93,98.315,281.259,96.31z M174.337,272.62c8.333,0,15.089,6.756,15.089,15.088s-6.756,15.088-15.089,15.088
	c-8.332,0-15.088-6.756-15.088-15.088S166.005,272.62,174.337,272.62z M174.337,152.448c-8.332,0-15.088-6.755-15.088-15.088
	c0-8.333,6.756-15.088,15.088-15.088c8.333,0,15.089,6.754,15.089,15.088C189.426,145.693,182.67,152.448,174.337,152.448z"/>
</svg>
