<?xml version="1.0" encoding="utf-8"?>
<!-- Generator: Adobe Illustrator 15.0.0, SVG Export Plug-In . SVG Version: 6.00 Build 0)  -->
<!DOCTYPE svg PUBLIC "-//W3C//DTD SVG 1.1//EN" "http://www.w3.org/Graphics/SVG/1.1/DTD/svg11.dtd">
<svg version="1.1" id="Layer_1" xmlns="http://www.w3.org/2000/svg" xmlns:xlink="http://www.w3.org/1999/xlink" x="0px" y="0px"
	 width="360px" height="360px" viewBox="0 0 360 360" enable-background="new 0 0 360 360" xml:space="preserve">
<path d="M327.345,144.881c-3.376-10.122-8.115-18.755-14.207-25.886c-6.104-7.142-13.501-12.652-22.195-16.544
	c-8.697-3.894-18.361-5.839-29-5.839c-15.572,0-27.967,3.755-37.178,11.288c-9.215,7.522-16.415,17.908-21.603,31.143
	c0,0.254-0.135,0.391-0.391,0.391c-0.261,0-0.391-0.137-0.391-0.391c-0.26-5.449-0.973-10.969-2.139-16.544
	c-1.168-5.585-3.054-10.644-5.646-15.181c-2.596-4.547-5.971-8.176-10.119-10.903c-4.155-2.722-9.216-4.085-15.184-4.085
	c-8.308,0-14.342,2.463-18.101,7.395c-3.758,4.927-6.677,10.376-8.758,16.352c-2.073-4.156-4.732-8.176-7.981-12.069
	c-3.242-3.893-6.939-7.395-11.093-10.513c-4.149-3.112-8.888-5.581-14.21-7.395c-5.315-1.82-11.223-2.728-17.713-2.728
	c-11.154,0-20.759,2.271-28.806,6.813c-8.042,4.541-14.659,11.03-19.852,19.464c-5.19,8.435-9.012,18.491-11.486,30.169
	c-2.463,11.679-3.695,24.528-3.695,38.543c0,16.864,2.012,31.726,6.032,44.57c4.03,12.849,9.54,23.681,16.544,32.506
	c7.008,8.819,15.316,15.439,24.913,19.854c9.605,4.41,19.989,6.615,31.143,6.615c12.72,0,23.035-2.722,30.948-8.171
	c7.92-5.454,14.076-13.306,18.491-23.555c4.41-10.254,7.593-22.773,9.54-37.564c1.946-14.791,3.563-31.533,4.866-50.217
	c0-2.336,0.192-5.388,0.583-9.149c0.39-3.766,1.034-7.532,1.947-11.288c0.907-3.766,2.141-6.95,3.698-9.54
	c1.558-2.595,3.505-3.893,5.838-3.893c3.115,0,5.513,1.617,7.203,4.867c1.686,3.243,2.92,7.203,3.697,11.876
	c0.779,4.668,1.295,9.468,1.557,14.4c0.256,4.926,0.391,8.956,0.391,12.068c0,10.898,1.557,21.146,4.671,30.752
	c3.114,9.601,7.651,18.102,13.625,25.502c5.968,7.395,13.298,13.233,21.995,17.517c8.691,4.279,18.744,6.424,30.17,6.424
	c6.227-0.265,12.388-1.237,18.49-2.92c6.093-1.693,10.962-3.614,17.263-7.305c0,0,6.71-4.091,10.183-8.074
	c6.032-6.924,11.289-14.208,15.181-22.384c3.894-8.176,5.84-19.14,5.84-32.892C332.403,166.155,330.716,155.003,327.345,144.881z
	 M96.441,203.399c-11.466,0-20.762-9.293-20.762-20.761c0-11.469,9.296-20.762,20.762-20.762s20.762,9.293,20.762,20.762
	C117.203,194.106,107.907,203.399,96.441,203.399z M264.481,189.385c-11.465,0-20.762-9.293-20.762-20.762
	s9.297-20.762,20.762-20.762c11.466,0,20.762,9.293,20.762,20.762S275.947,189.385,264.481,189.385z"/>
</svg>
